<?xml version="1.0" encoding="utf-8"?>
<!-- Generator: Adobe Illustrator 15.0.0, SVG Export Plug-In . SVG Version: 6.00 Build 0)  -->
<!DOCTYPE svg PUBLIC "-//W3C//DTD SVG 1.1//EN" "http://www.w3.org/Graphics/SVG/1.1/DTD/svg11.dtd">
<svg version="1.1" id="Capa_1" xmlns="http://www.w3.org/2000/svg" xmlns:xlink="http://www.w3.org/1999/xlink" x="0px" y="0px"
	 width="300px" height="300px" viewBox="0 0 300 300" enable-background="new 0 0 300 300" xml:space="preserve">
<g>
	<path fill="#FFFFFF" d="M300,0H0v285.362h10.397c0-0.121,5.685-11.614,5.322-10.886h-4.112V11.006h276.786v263.47H122.611
		c-0.12,0.363-3.99,8.223-5.44,10.886H300V0z"/>
	<path fill="#FFFFFF" d="M149.697,25.524c-27.086,0-49.094,20.927-49.094,46.694c0,8.587,2.539,16.692,6.771,23.587
		c2.901-2.54,5.926-4.838,9.19-6.774c-2.781-5.08-4.354-10.767-4.354-16.813c0-19.719,16.809-35.686,37.485-35.686
		c20.68,0,37.484,15.967,37.484,35.686c0,5.684-1.45,11.127-3.87,15.967c1.454,3.628,1.695,6.653,1.695,9.798
		c1.449,0.483,2.899,1.087,4.232,1.815c6.045-7.743,9.552-17.299,9.552-27.58C198.791,46.451,176.783,25.524,149.697,25.524
		L149.697,25.524z"/>
	<path fill="#FFFFFF" d="M132.526,254.152c5.321,1.934,11.123,2.904,17.171,2.904c27.086,0,49.094-20.929,49.094-46.696
		c0-5.442-1.087-10.644-2.903-15.603c-1.449,1.45-3.024,2.538-4.836,3.509c-1.571,0.967-3.387,1.813-5.199,2.417
		c0.846,3.146,1.329,6.414,1.329,9.677c0,19.721-16.805,35.687-37.484,35.687c-4.232,0-8.344-0.604-12.214-1.934
		C137.363,244.354,132.285,254.757,132.526,254.152L132.526,254.152z"/>
	<path fill="#FFFFFF" d="M128.658,72.218v10.16c1.329-0.725,7.255-3.993,6.893-3.872v-6.289c0-7.501,6.407-13.428,14.146-13.428
		c7.619,0,13.785,5.685,14.147,12.821c2.42,0.606,4.957,1.573,6.895,2.661v-2.054c0-11.129-9.432-20.081-21.042-20.081
		C138.09,52.137,128.658,61.089,128.658,72.218L128.658,72.218z"/>
	<path fill="#FFFFFF" d="M170.739,210.36v-7.98c-1.333,0-7.137,0-6.895,0v7.98c0,7.502-6.286,13.428-14.147,13.428
		c-0.725,0-1.449,0-2.174-0.121c-0.125,0.242-3.267,6.535-3.024,6.173c1.691,0.362,3.383,0.604,5.198,0.604
		C161.308,230.443,170.739,221.492,170.739,210.36L170.739,210.36z"/>
	<path fill="#FFFFFF" d="M152.113,193.549c7.74,0,15.239,0,23.945,0c10.881,0,19.708-8.468,19.708-18.753v-50.562
		c0-10.404-8.947-18.751-19.708-18.751c-0.121,0-2.541,0-2.42,0c2.903-5.322,2.903-11.612-0.362-17.055
		c-5.078-8.227-16.442-11.371-25.512-6.412c-25.153,13.79-24.911,13.669-25.878,14.153c-8.223,4.838-14.512,11.854-18.382,19.718
		c-0.12,0.242-90.326,184.475-90.204,184.111c0.967,0,13.3,0,12.816,0c121.889-248.83-51.995,106.092,87.909-179.515
		c3.145-6.533,8.585-11.975,14.632-15.363c1.691-1.088-5.805,3.267,24.909-13.669c3.387-1.815,7.74-0.725,9.673,2.54
		c2.296,3.872,0.362,7.623-2.541,9.193c-33.734,18.508-5.199,2.905-24.182,13.307c1.21,0,42.683,0,39.541,0
		c4.595,0,8.224,3.509,8.224,7.743v50.562c0,4.476-3.87,7.743-8.224,7.743c-14.026,0-9.311,0-31.318,0
		c-29.746,60.728-57.8,117.822-57.559,117.459c0.969,0,13.181,0,12.697,0C100.241,299.395,150.423,196.813,152.113,193.549
		L152.113,193.549z"/>
</g>
</svg>
