<?xml version="1.0" encoding="utf-8"?>
<!-- Generator: Adobe Illustrator 15.0.0, SVG Export Plug-In . SVG Version: 6.00 Build 0)  -->
<!DOCTYPE svg PUBLIC "-//W3C//DTD SVG 1.1//EN" "http://www.w3.org/Graphics/SVG/1.1/DTD/svg11.dtd">
<svg version="1.1" id="Capa_1" xmlns="http://www.w3.org/2000/svg" xmlns:xlink="http://www.w3.org/1999/xlink" x="0px" y="0px"
	 width="300px" height="300px" viewBox="0 0 300 300" enable-background="new 0 0 300 300" xml:space="preserve">
<g>
	<path fill="#FFFFFF" d="M0.005,0.014v221.042c0.242-0.241,12.336-16.567,11.49-15.48V11.622h276.979v193.953
		c0.121,0.242,12.334,16.447,11.488,15.48V0.014H0.005z"/>
	<path fill="#FFFFFF" d="M11.495,278.127c92.77,0,184.933,0,276.979,0v10.16H11.495V278.127z M59.512,213.194
		c38.342,0,128.57,0,180.943,0l45.841,61.43c-35.682,0-259.683,0-272.624,0L59.512,213.194z M61.206,206.18v-95.889h177.558v95.889
		C218.441,206.18,81.647,206.18,61.206,206.18L61.206,206.18z M250.252,207.029V98.683H49.716v108.346L0.005,273.653v26.36h299.958
		v-26.36L250.252,207.029z"/>
	<rect x="57.818" y="106.786" fill="#FFFFFF" width="3.388" height="102.902"/>
	<rect x="103.054" y="106.786" fill="#FFFFFF" width="3.388" height="102.902"/>
	<rect x="148.29" y="106.786" fill="#FFFFFF" width="3.507" height="102.902"/>
	<rect x="193.528" y="106.786" fill="#FFFFFF" width="3.383" height="102.902"/>
	<rect x="238.764" y="106.786" fill="#FFFFFF" width="3.384" height="102.902"/>
	<rect x="57.818" y="156.481" fill="#FFFFFF" width="184.329" height="3.508"/>
</g>
</svg>
