<?xml version="1.0" encoding="utf-8"?>
<!-- Generator: Adobe Illustrator 15.0.0, SVG Export Plug-In . SVG Version: 6.00 Build 0)  -->
<!DOCTYPE svg PUBLIC "-//W3C//DTD SVG 1.1//EN" "http://www.w3.org/Graphics/SVG/1.1/DTD/svg11.dtd">
<svg version="1.1" id="Capa_1" xmlns="http://www.w3.org/2000/svg" xmlns:xlink="http://www.w3.org/1999/xlink" x="0px" y="0px"
	 width="300px" height="300px" viewBox="0 0 300 300" enable-background="new 0 0 300 300" xml:space="preserve">
<g>
	<polygon fill="#FFFFFF" points="206.408,0 72.066,77.629 93.832,71.704 115.478,66.021 202.176,15.961 284.158,157.918 
		249.698,177.752 251.27,183.555 252.84,189.357 300,162.15 	"/>
	<polygon fill="#FFFFFF" points="198.789,243.408 198.789,249.457 253.081,234.943 204.596,54.172 29.019,101.208 74.001,101.208 
		196.372,68.439 238.813,226.72 198.789,237.484 	"/>
	<path fill="#FFFFFF" d="M175.573,288.391H11.608V124.425h163.965V288.391z M0,112.817V300h187.183V112.817H0z"/>
	<polygon fill="#FFFFFF" points="104.957,151.148 100.12,181.984 111.366,152.961 	"/>
	<polygon fill="#FFFFFF" points="147.158,188.633 118.017,199.88 148.85,195.039 	"/>
	<polygon fill="#FFFFFF" points="148.85,217.776 118.017,212.936 147.158,224.184 	"/>
	<polygon fill="#FFFFFF" points="111.366,259.976 100.12,230.832 104.957,261.667 	"/>
	<polygon fill="#FFFFFF" points="82.224,261.667 87.061,230.832 75.815,259.976 	"/>
	<polygon fill="#FFFFFF" points="40.144,224.184 69.165,212.936 38.332,217.776 	"/>
	<polygon fill="#FFFFFF" points="38.332,195.039 69.165,199.88 40.144,188.633 	"/>
	<polygon fill="#FFFFFF" points="131.076,164.209 111.487,188.512 135.792,168.924 	"/>
	<polygon fill="#FFFFFF" points="135.792,243.892 111.487,224.304 131.076,248.607 	"/>
	<polygon fill="#FFFFFF" points="56.105,248.607 75.694,224.304 51.389,243.892 	"/>
	<polygon fill="#FFFFFF" points="51.389,168.924 75.694,188.512 56.105,164.209 	"/>
	<polygon fill="#FFFFFF" points="75.815,152.961 87.061,181.984 82.224,151.148 	"/>
</g>
</svg>
