<?xml version="1.0" encoding="utf-8"?>
<!-- Generator: Adobe Illustrator 15.0.0, SVG Export Plug-In . SVG Version: 6.00 Build 0)  -->
<!DOCTYPE svg PUBLIC "-//W3C//DTD SVG 1.1//EN" "http://www.w3.org/Graphics/SVG/1.1/DTD/svg11.dtd">
<svg version="1.1" id="Capa_1" xmlns="http://www.w3.org/2000/svg" xmlns:xlink="http://www.w3.org/1999/xlink" x="0px" y="0px"
	 width="300px" height="300px" viewBox="0 0 300 300" enable-background="new 0 0 300 300" xml:space="preserve">
<g>
	<path fill="#FFFFFF" d="M83.69,248.263H67.002c-18.38-19.954-29.625-46.437-29.625-75.455c0-27.086,9.673-51.875,25.878-71.342
		c0,0.242,0,19.346,0.121,20.071c-9.069,14.995-14.27,32.529-14.27,51.271C49.106,202.918,62.528,229.883,83.69,248.263
		L83.69,248.263z"/>
	<path fill="#FFFFFF" d="M262.651,172.808c0,29.019-11.248,55.501-29.627,75.455H216.34c21.158-18.38,34.58-45.345,34.58-75.455
		c0-18.742-5.198-36.276-14.268-51.271c0-0.846,0-2.056,0-20.071C252.857,120.933,262.651,145.721,262.651,172.808L262.651,172.808z
		"/>
	<path fill="#FFFFFF" d="M215.615,81.997L215.615,81.997c0,6.288,0,28.9,0,38.09c0,12.575-12.939,18.138-25.757,18.138h-3.508
		v31.558c0,19.833-16.326,36.034-36.397,36.034c-19.952,0-36.276-16.201-36.276-36.034v-31.558h-3.507
		c-12.816,0-25.755-5.563-25.755-18.138c0-0.727,0-38.452,0-38.09l0,0C159.022,81.997,137.256,81.997,215.615,81.997L215.615,81.997
		z M101.949,149.35v20.434c0,26.24,21.522,47.644,48.004,47.644s48.127-21.403,48.127-47.644V149.35
		c17.534-2.66,29.261-14.026,29.261-29.263c0-24.305,0-97.461,0-120.073c-0.483,0-12.214,0-11.727,0v78.475
		c-11.61,0-135.674,0-131.2,0V0.014c-1.935,0-11.971,0-11.729,0c0,38.936,0,85.247,0,120.073
		C72.687,135.323,84.294,146.69,101.949,149.35L101.949,149.35z"/>
	<path fill="#FFFFFF" d="M149.954,157.936c6.649,0,11.972,5.319,11.972,11.968c0,6.532-5.323,11.853-11.972,11.853
		c-6.53,0-11.97-5.32-11.97-11.853C137.983,163.255,143.424,157.936,149.954,157.936L149.954,157.936z M149.954,186.351
		c9.19,0,16.688-7.378,16.688-16.447c0-9.189-7.498-16.563-16.688-16.563c-9.189,0-16.565,7.373-16.565,16.563
		C133.389,178.973,140.764,186.351,149.954,186.351L149.954,186.351z"/>
	<rect x="104.972" y="0.256" fill="#FFFFFF" width="50.423" height="7.013"/>
	<rect x="104.972" y="25.044" fill="#FFFFFF" width="50.423" height="7.013"/>
	<rect x="104.972" y="49.954" fill="#FFFFFF" width="50.423" height="6.893"/>
	<path fill="#FFFFFF" d="M288.287,288.287H11.743v-19.108h276.544V288.287z M0.014,257.573v42.44h300v-42.44H0.014z"/>
</g>
</svg>
